<svg id="Camada_1" data-name="Camada 1" xmlns="http://www.w3.org/2000/svg" viewBox="0 0 239.96 239.94"><defs><style>.cls-1{fill:#eb5990;}.cls-2{fill:#fff;}.cls-3{fill:#f3ebef;}.cls-4{fill:#fdfbfc;}</style></defs><path class="cls-1" d="M134.91,253.69c-29.82,0-59.64.09-89.46,0a29.87,29.87,0,0,1-30-30.07q-.12-89.94,0-179.86A29.59,29.59,0,0,1,45.16,13.9q89.21-.24,178.42,0c18.51,0,31.74,13.45,31.76,31.84q.1,88.68,0,177.36a30.27,30.27,0,0,1-30.52,30.61Q179.89,253.67,134.91,253.69Z" transform="translate(-15.41 -13.78)"/><path class="cls-2" d="M80.3,138.3c0-14.82.37-29.65-.12-44.45A18.28,18.28,0,0,1,98.92,75c6.49,0,13-.07,19.47,0a5.84,5.84,0,0,0,5.67-2.9c6-8.68,16.92-8.57,22.86.22A5.39,5.39,0,0,0,152.2,75c6.32-.08,12.65-.06,19,0,12.11.09,19.32,7.22,19.33,19.17,0,29.47-.26,58.94.14,88.41.17,12.64-9.16,19.43-19.17,19.34q-36-.32-71.94,0c-10,.1-19.81-6.53-19.34-19.67C80.7,167.62,80.3,153,80.3,138.3Z" transform="translate(-15.41 -13.78)"/><path class="cls-1" d="M83.43,138.2c0-14.81,0-29.63,0-44.44,0-9.69,5.49-15.11,15.1-15.14.67,0,1.33,0,2,0,3.48.08,7.69-1,10.25.6s.59,6,1,9.17c.74,5.74,3.69,8.37,9.63,8.39,9,0,18-.3,27,.1,7.35.33,10.25-3.11,10.8-10.49.58-7.77.52-7.78,8.58-7.78,2,0,4,0,6,0,7.49.14,13.51,5.6,13.55,13.13q.24,46.44,0,92.89a13.62,13.62,0,0,1-13.94,14q-38,.27-75.93,0c-8.44-.07-13.94-6.21-14-15C83.36,168.5,83.43,153.35,83.43,138.2Z" transform="translate(-15.41 -13.78)"/><path class="cls-1" d="M115.23,84.06c-.82-3.66.31-6.26,5.56-5.49,2.87.41,4.45-1.26,5.63-3.85a9.37,9.37,0,0,1,9-5.87c4.4,0,8,2.27,9.38,6.21,1.23,3.38,3.2,3.84,6,3.54,3.58-.38,5.79.34,4.79,4.73-.39,1.7-.06,3.57-.07,5.36,0,3.34-2.06,4.88-5.07,4.92-10,.11-19.95.2-29.92,0C114.69,93.48,115.23,88.88,115.23,84.06Z" transform="translate(-15.41 -13.78)"/><path class="cls-3" d="M116.06,130.66c-4.31,0-8.61,0-12.92,0-1.12,0-2.56.18-2.69-1.45s1.2-2.26,2.62-2.27q12.92-.06,25.83,0c1.2,0,2.39.45,2.42,1.93.05,2-1.58,1.76-2.84,1.77C124.34,130.69,120.2,130.66,116.06,130.66Z" transform="translate(-15.41 -13.78)"/><path class="cls-3" d="M155.67,130.66c-4,0-7.95.06-11.92,0-1.33,0-3.42.59-3.27-1.79.13-2,2-2,3.45-2,6.95,0,13.91,0,20.86,0,1.33,0,2.65,0,4,.06s2.73.56,2.54,2.32-1.6,1.39-2.71,1.4C164.28,130.68,160,130.66,155.67,130.66Z" transform="translate(-15.41 -13.78)"/><path class="cls-4" d="M114.42,167.87c-4.15,0-8.29,0-12.44,0-1.09,0-2.56.2-2.39-1.62.12-1.3,1.19-1.4,2.22-1.4h26.31c1.07,0,2.13.23,2.2,1.47.11,1.8-1.4,1.54-2.48,1.55C123.37,167.89,118.89,167.87,114.42,167.87Z" transform="translate(-15.41 -13.78)"/><path class="cls-4" d="M154.4,167.87c-4.14,0-8.29,0-12.43,0-1.09,0-2.56.2-2.39-1.62.11-1.29,1.19-1.4,2.22-1.4h26.31c1.06,0,2.12.23,2.19,1.46.12,1.81-1.39,1.55-2.47,1.56C163.36,167.89,158.88,167.87,154.4,167.87Z" transform="translate(-15.41 -13.78)"/></svg>