<svg width="659" height="661" viewBox="0 0 659 661" fill="none" xmlns="http://www.w3.org/2000/svg">
<path d="M648.034 358.567L622.848 333.381C619.724 330.257 614.659 330.257 611.535 333.381L338.659 606.257C335.535 609.381 335.535 614.447 338.659 617.571L363.845 642.757L648.034 358.567Z" fill="#FBF6F1"/>
<path d="M512.475 494.114L481.639 463.257L439.59 505.305L467.871 550.413L512.475 494.114Z" fill="#EEE2D8"/>
<path d="M363.841 642.756L368.46 647.375C371.584 650.499 376.649 650.499 379.774 647.375L652.649 374.5C655.774 371.375 655.774 366.31 652.649 363.186L648.03 358.567L363.841 642.756Z" fill="#EEE2D8"/>
<path d="M363.851 337.988L338.665 363.174C335.541 366.298 335.541 371.364 338.665 374.488L611.541 647.364C614.665 650.488 619.73 650.488 622.855 647.364L648.041 622.178L363.851 337.988Z" fill="#FBF6F1"/>
<path d="M648.04 622.182L652.659 617.563C655.783 614.438 655.783 609.373 652.659 606.249L379.783 333.373C376.659 330.249 371.594 330.249 368.47 333.373L363.85 337.993L648.04 622.182Z" fill="#EEE2D8"/>
<path d="M231.927 447.052L216.951 432.075C213.826 428.951 208.761 428.951 205.637 432.075L26.8837 610.828C23.7595 613.952 23.7595 619.018 26.8836 622.142L41.8602 637.119L231.927 447.052Z" fill="#FBF6F1"/>
<path d="M141.253 537.69L120.618 517.072L92.51 545.197L111.416 575.346L141.253 537.69Z" fill="#EEE2D8"/>
<path d="M41.8453 637.112L43.0621 638.329C46.1863 641.453 51.2517 641.453 54.3759 638.329L233.129 459.576C236.253 456.452 236.253 451.386 233.129 448.262L231.912 447.045L41.8453 637.112Z" fill="#EEE2D8"/>
<path d="M41.8695 433.289L26.8929 448.266C23.7687 451.39 23.7687 456.456 26.8929 459.58L205.646 638.333C208.77 641.457 213.836 641.457 216.96 638.333L231.936 623.356L41.8695 433.289Z" fill="#FBF6F1"/>
<path d="M231.903 623.344L233.12 622.127C236.244 619.003 236.244 613.938 233.12 610.814L51.5386 429.232C49.9765 427.67 47.4439 427.67 45.8818 429.232L41.8365 433.277L231.903 623.344Z" fill="#EEE2D8"/>
<path d="M630.655 174.55C627.52 174.564 624.486 172.942 622.21 170.785C619.521 168.237 615.716 166.767 611.109 166.767C605.878 166.895 600.798 168.548 596.493 171.523Lnan nanL596.493 171.523C593.588 161.768 584.887 155.247 572.745 155.247C557.008 155.247 540.628 166.184 532.877 180.87C531.56 183.365 528.778 184.778 525.956 184.79H524.33C509.438 185.793 510.493 208.279 525.489 208.279H631.779C633.619 208.285 635.435 207.858 637.078 207.032C638.722 206.205 640.148 205.003 641.241 203.523C643.075 201.032 644.473 198.248 645.375 195.289C648.661 183.839 642.158 174.55 630.655 174.55Z" fill="#FBF6F1"/>
<path d="M271.987 97.5714C267.078 95.1139 262.667 91.1664 260.631 86.0684C254.893 71.6985 241.046 62.2898 222.228 62.2898C207.22 62.2898 191.837 68.2671 178.998 77.983C174.011 81.7569 166.927 81.6257 160.805 80.3512C159.14 80.0047 157.428 79.8521 155.702 79.9054C140.087 79.9054 123.711 92.5625 119.1 108.177C118.416 110.482 118.029 112.864 117.948 115.267Lnan nanL117.948 115.267L117.622 115.485C104.704 124.184 111.097 144.605 126.843 144.605H264.44C267.065 144.626 269.654 143.99 271.971 142.756C274.288 141.522 276.259 139.727 277.706 137.537C279.856 134.256 281.519 130.681 282.643 126.924C286.439 113.801 281.851 102.51 271.987 97.5714Z" fill="#FBF6F1"/>
<path d="M404.748 232.266C399.575 230.417 395.2 226.407 393.512 221.18C386.322 198.91 365.947 184.064 337.66 184.064C314.866 184.064 291.495 193.681 272.578 209.05C267.741 212.98 260.757 212.963 254.913 210.796C251.197 209.418 247.214 208.755 243.178 208.882C221.019 208.882 197.713 226.722 191.173 248.731C190.252 251.807 189.708 254.982 189.554 258.186C189.538 258.521 189.364 258.829 189.083 259.01C170.676 271.431 179.801 300.063 202.05 300.063H389.17C396.758 300.116 404.161 297.748 410.288 293.307C416.378 288.893 420.886 282.663 423.155 275.529C423.183 275.444 423.196 275.354 423.196 275.265C423.196 275.177 423.21 275.089 423.235 275.005C429.269 255.07 421.179 238.137 404.748 232.266Z" fill="#EEE2D8"/>
<path d="M438.948 474.857H412.488C410.279 474.857 408.488 476.648 408.488 478.857V656.419C408.488 658.628 410.279 660.419 412.488 660.419H438.948V474.857Z" fill="#8C837C"/>
<path d="M438.948 551.967H408.488V574.228L438.948 567.655V551.967Z" fill="#3A3A3A"/>
<path d="M438.931 660.436H445.084C447.293 660.436 449.084 658.645 449.084 656.436V478.874C449.084 476.665 447.293 474.874 445.084 474.874H438.931V660.436Z" fill="#3A3A3A"/>
<path d="M119.87 474.857H93.4105C91.2013 474.857 89.4105 476.648 89.4105 478.857V656.419C89.4105 658.628 91.2013 660.419 93.4105 660.419H119.87V474.857Z" fill="#8C837C"/>
<path d="M119.853 551.967H89.4105V574.228L119.853 567.655V551.967Z" fill="#3A3A3A"/>
<path d="M119.853 660.436H126.007C128.216 660.436 130.007 658.645 130.007 656.436L130.007 478.874C130.007 476.665 128.216 474.874 126.007 474.874H119.853L119.853 660.436Z" fill="#3A3A3A"/>
<path d="M454.93 502.065H70.1807C67.9715 502.065 66.1807 503.856 66.1807 506.065V555.18C66.1807 557.389 67.9715 559.18 70.1807 559.18H454.93V502.065Z" fill="#8C837C"/>
<path d="M454.931 559.162H456.639C458.848 559.162 460.639 557.371 460.639 555.162V506.048C460.639 503.839 458.848 502.048 456.639 502.048H454.931V559.162Z" fill="#3A3A3A"/>
<path d="M307.249 443.826H231.246L177.504 497.568V573.571L231.246 627.312H307.249L360.991 573.571V497.568L307.249 443.826Z" fill="#FBF6F1"/>
<path d="M303.772 452.215H234.723L185.893 501.044V570.094L234.723 618.923H303.772L352.602 570.094V501.044L303.772 452.215Z" fill="#F74930"/>
<path d="M202.533 543.543L212.254 542.678C212.335 544.475 212.77 546.239 213.534 547.867C213.935 548.725 214.573 549.45 215.373 549.956C216.173 550.462 217.102 550.727 218.049 550.721C218.699 550.773 219.353 550.669 219.955 550.416C220.557 550.163 221.09 549.77 221.508 549.268C222.313 548.298 222.737 547.069 222.701 545.809C222.71 544.615 222.307 543.454 221.56 542.523C220.102 541.169 218.312 540.225 216.371 539.79C212.69 538.857 209.361 536.874 206.788 534.082C204.777 531.488 203.753 528.263 203.9 524.983C203.876 522.597 204.378 520.235 205.37 518.065C206.312 515.969 207.861 514.204 209.815 512.997C212.299 511.632 215.115 510.991 217.945 511.146C219.699 511.025 221.46 511.26 223.122 511.837C224.783 512.414 226.311 513.32 227.614 514.501C229.828 516.733 231.073 520.296 231.575 525.174L221.94 525.987C221.85 524.321 221.292 522.715 220.332 521.351C219.902 520.865 219.367 520.483 218.768 520.234C218.168 519.985 217.52 519.876 216.872 519.915C216.374 519.882 215.874 519.961 215.41 520.147C214.946 520.332 214.529 520.62 214.191 520.988C213.585 521.721 213.265 522.649 213.292 523.6C213.283 524.343 213.548 525.063 214.036 525.623C215.006 526.509 216.204 527.108 217.495 527.353C220.89 528.234 224.128 529.634 227.095 531.504C228.954 532.812 230.414 534.608 231.315 536.693C232.215 538.888 232.662 541.241 232.63 543.612C232.671 546.484 232.08 549.331 230.9 551.949C229.869 554.332 228.153 556.355 225.971 557.761C223.558 559.158 220.799 559.841 218.014 559.733C212.398 559.733 208.506 558.188 206.339 555.097C204.016 551.677 202.698 547.674 202.533 543.543Z" fill="#FBF6F1"/>
<path d="M235.363 512.028H266.497V523.669H256.119V559.11H245.896V523.669H235.518L235.363 512.028Z" fill="#FBF6F1"/>
<path d="M268.175 535.604C268.175 527.924 269.68 521.939 272.69 517.65C274.146 515.669 276.046 514.057 278.237 512.942C280.428 511.828 282.85 511.242 285.308 511.232C287.766 511.222 290.193 511.788 292.393 512.884C294.593 513.98 296.506 515.577 297.978 517.546C301.011 521.755 302.527 527.641 302.527 535.206C302.671 539.8 302.01 544.384 300.573 548.749C299.494 551.959 297.541 554.805 294.934 556.966C292.306 558.981 289.059 560.02 285.749 559.906C282.476 560.037 279.242 559.148 276.495 557.363C273.777 555.321 271.709 552.533 270.545 549.338C268.869 544.958 268.064 540.292 268.175 535.604ZM278.398 535.604C278.398 540.366 279.021 543.779 280.266 545.844C280.75 546.772 281.479 547.549 282.374 548.092C283.269 548.635 284.296 548.922 285.343 548.922C286.389 548.922 287.416 548.635 288.311 548.092C289.206 547.549 289.935 546.772 290.419 545.844C291.63 543.803 292.149 540.153 292.149 534.895C292.38 531.547 291.736 528.197 290.281 525.174C289.78 524.237 289.031 523.455 288.116 522.915C287.2 522.376 286.154 522.098 285.092 522.112C284.058 522.124 283.048 522.422 282.172 522.971C281.296 523.52 280.589 524.3 280.128 525.226C278.975 527.393 278.398 530.876 278.398 535.673V535.604Z" fill="#FBF6F1"/>
<path d="M307.906 512.028H324.892C326.482 511.922 328.074 512.211 329.525 512.869C330.977 513.527 332.243 514.533 333.212 515.799C335.237 518.981 336.2 522.724 335.962 526.488C336.195 530.43 335.139 534.34 332.952 537.628C331.864 538.994 330.458 540.074 328.858 540.773C327.257 541.472 325.51 541.77 323.768 541.64H318.094V559.11H307.837L307.906 512.028ZM318.094 532.11H320.602C321.36 532.193 322.127 532.104 322.846 531.849C323.565 531.595 324.217 531.181 324.754 530.64C325.582 529.575 326.005 528.251 325.947 526.903C326.031 525.569 325.705 524.242 325.013 523.098C324.547 522.534 323.945 522.098 323.265 521.828C322.585 521.559 321.847 521.467 321.121 521.559H318.094V532.11Z" fill="#FBF6F1"/>
<path d="M86.5386 306.283V292.66H49.771C45.1323 292.66 41.6411 291.61 39.2974 289.51C37.0024 287.411 35.855 284.554 35.855 280.941C35.855 280.013 36.0259 279.086 36.3677 278.158C36.7095 277.181 37.2222 276.18 37.9058 275.155C38.5894 274.081 39.2974 273.055 40.0298 272.079C40.7622 271.102 41.6655 269.906 42.7397 268.49L81.5581 216.561C84.0972 213.143 86.1724 210.677 87.7837 209.164C89.4438 207.601 91.4214 206.82 93.7163 206.82C101.138 206.82 104.849 211.068 104.849 219.564V276.254H107.999C111.758 276.254 114.761 276.766 117.007 277.792C119.302 278.817 120.45 281.063 120.45 284.53C120.45 287.362 119.522 289.437 117.667 290.755C115.811 292.025 113.028 292.66 109.317 292.66H104.849V306.283C104.849 310.043 104.019 312.85 102.359 314.706C100.699 316.512 98.4771 317.416 95.6938 317.416C92.9595 317.416 90.7378 316.488 89.0288 314.632C87.3687 312.728 86.5386 309.945 86.5386 306.283ZM55.0444 276.254H86.5386V233.7L55.0444 276.254ZM205.264 262.923C205.264 270.931 204.776 277.816 203.799 283.578C202.823 289.339 201.016 294.564 198.379 299.252C195.059 305.013 190.762 309.457 185.489 312.582C180.215 315.707 174.356 317.269 167.911 317.269C160.489 317.269 153.824 315.17 147.916 310.97C142.056 306.771 137.637 300.961 134.659 293.539C133.145 289.486 132.022 285.018 131.29 280.135C130.606 275.204 130.264 269.881 130.264 264.169C130.264 256.796 130.655 250.155 131.436 244.247C132.217 238.339 133.438 233.26 135.098 229.012C137.979 221.981 142.154 216.634 147.623 212.972C153.14 209.261 159.708 207.406 167.325 207.406C172.354 207.406 176.919 208.236 181.021 209.896C185.123 211.507 188.711 213.9 191.788 217.074C194.913 220.199 197.549 224.081 199.698 228.719C203.409 236.776 205.264 248.177 205.264 262.923ZM185.196 261.459C185.196 252.523 184.659 245.223 183.584 239.559C182.51 233.846 180.704 229.549 178.165 226.669C175.625 223.739 172.11 222.274 167.618 222.274C161.172 222.274 156.68 225.521 154.141 232.015C151.651 238.509 150.406 248.519 150.406 262.045C150.406 271.224 150.943 278.744 152.017 284.603C153.091 290.463 154.898 294.906 157.437 297.933C159.976 300.912 163.418 302.401 167.764 302.401C172.256 302.401 175.772 300.839 178.311 297.714C180.85 294.589 182.632 290.121 183.658 284.31C184.683 278.5 185.196 270.882 185.196 261.459ZM254.776 305.55V238.9C242.374 248.422 234.024 253.182 229.727 253.182C227.676 253.182 225.845 252.377 224.234 250.765C222.671 249.105 221.89 247.201 221.89 245.052C221.89 242.562 222.671 240.731 224.234 239.559C225.796 238.387 228.555 236.874 232.51 235.018C238.418 232.235 243.13 229.305 246.646 226.229C250.21 223.153 253.36 219.711 256.094 215.902C258.829 212.093 260.611 209.75 261.441 208.871C262.271 207.992 263.833 207.552 266.128 207.552C268.716 207.552 270.792 208.553 272.354 210.555C273.917 212.557 274.698 215.316 274.698 218.832V302.694C274.698 312.508 271.353 317.416 264.664 317.416C261.685 317.416 259.292 316.415 257.486 314.413C255.679 312.411 254.776 309.457 254.776 305.55Z" fill="black"/>
<path d="M50.6384 354.585V353.433H41.5664V346.545H49.2944V345.393H41.5664V338.649H50.6384V337.497H40.2704V354.585H50.6384ZM66.2061 354.585L62.0781 346.689C64.4781 346.281 66.0141 344.625 66.0141 342.081C66.0141 339.105 63.9021 337.497 61.1181 337.497H54.6141V354.585H55.9101V346.713H60.6141L64.6941 354.585H66.2061ZM64.7181 342.105C64.7181 344.457 63.1341 345.561 60.9501 345.561H55.9101V338.649H60.9501C63.1341 338.649 64.7181 339.753 64.7181 342.105ZM81.9796 354.585L77.8516 346.689C80.2516 346.281 81.7876 344.625 81.7876 342.081C81.7876 339.105 79.6756 337.497 76.8916 337.497H70.3876V354.585H71.6836V346.713H76.3876L80.4676 354.585H81.9796ZM80.4916 342.105C80.4916 344.457 78.9076 345.561 76.7236 345.561H71.6836V338.649H76.7236C78.9076 338.649 80.4916 339.753 80.4916 342.105ZM97.201 346.041C97.201 342.177 97.177 340.665 95.617 339.105C94.489 337.977 92.953 337.353 91.345 337.353C89.737 337.353 88.201 337.977 87.073 339.105C85.513 340.665 85.489 342.177 85.489 346.041C85.489 349.905 85.513 351.417 87.073 352.977C88.201 354.105 89.737 354.729 91.345 354.729C92.953 354.729 94.489 354.105 95.617 352.977C97.177 351.417 97.201 349.905 97.201 346.041ZM95.905 346.041C95.905 349.713 95.809 351.033 94.585 352.257C93.721 353.121 92.569 353.577 91.345 353.577C90.121 353.577 88.969 353.121 88.105 352.257C86.881 351.033 86.785 349.713 86.785 346.041C86.785 342.369 86.881 341.049 88.105 339.825C88.969 338.961 90.121 338.505 91.345 338.505C92.569 338.505 93.721 338.961 94.585 339.825C95.809 341.049 95.905 342.369 95.905 346.041ZM113.409 354.585L109.281 346.689C111.681 346.281 113.217 344.625 113.217 342.081C113.217 339.105 111.105 337.497 108.321 337.497H101.817V354.585H103.113V346.713H107.817L111.897 354.585H113.409ZM111.921 342.105C111.921 344.457 110.337 345.561 108.153 345.561H103.113V338.649H108.153C110.337 338.649 111.921 339.753 111.921 342.105ZM135.18 349.041V337.497H133.884V348.873C133.884 351.705 132.06 353.577 129.324 353.577C126.588 353.577 124.764 351.705 124.764 348.873V337.497H123.468V349.041C123.468 352.377 125.892 354.729 129.324 354.729C132.756 354.729 135.18 352.377 135.18 349.041ZM152.687 354.585V337.497H151.391V352.305L141.527 337.497H140.231V354.585H141.527V339.729L151.391 354.585H152.687ZM169.421 354.585L163.133 337.497H161.981L155.693 354.585H157.085L158.573 350.433H166.541L168.029 354.585H169.421ZM166.133 349.281H158.981L162.557 339.225L166.133 349.281ZM183.883 349.041V337.497H182.587V348.873C182.587 351.705 180.763 353.577 178.027 353.577C175.291 353.577 173.467 351.705 173.467 348.873V337.497H172.171V349.041C172.171 352.377 174.595 354.729 178.027 354.729C181.459 354.729 183.883 352.377 183.883 349.041ZM198.51 338.649V337.497H187.014V338.649H192.102V354.585H193.398V338.649H198.51ZM213.368 354.585V337.497H212.072V345.393H203.168V337.497H201.872V354.585H203.168V346.545H212.072V354.585H213.368ZM229.693 346.041C229.693 342.177 229.669 340.665 228.109 339.105C226.981 337.977 225.445 337.353 223.837 337.353C222.229 337.353 220.693 337.977 219.565 339.105C218.005 340.665 217.981 342.177 217.981 346.041C217.981 349.905 218.005 351.417 219.565 352.977C220.693 354.105 222.229 354.729 223.837 354.729C225.445 354.729 226.981 354.105 228.109 352.977C229.669 351.417 229.693 349.905 229.693 346.041ZM228.397 346.041C228.397 349.713 228.301 351.033 227.077 352.257C226.213 353.121 225.061 353.577 223.837 353.577C222.613 353.577 221.461 353.121 220.597 352.257C219.373 351.033 219.277 349.713 219.277 346.041C219.277 342.369 219.373 341.049 220.597 339.825C221.461 338.961 222.613 338.505 223.837 338.505C225.061 338.505 226.213 338.961 227.077 339.825C228.301 341.049 228.397 342.369 228.397 346.041ZM245.901 354.585L241.773 346.689C244.173 346.281 245.709 344.625 245.709 342.081C245.709 339.105 243.597 337.497 240.813 337.497H234.309V354.585H235.605V346.713H240.309L244.389 354.585H245.901ZM244.413 342.105C244.413 344.457 242.829 345.561 240.645 345.561H235.605V338.649H240.645C242.829 338.649 244.413 339.753 244.413 342.105ZM251.379 354.585V337.497H250.083V354.585H251.379ZM265.933 354.585V353.433H256.861L265.933 338.649V337.497H255.901V338.649H264.541L255.541 353.217V354.585H265.933ZM280.443 354.585V353.433H271.371V346.545H279.099V345.393H271.371V338.649H280.443V337.497H270.075V354.585H280.443ZM296.083 345.801C296.083 343.497 296.155 340.785 294.427 339.057C293.419 338.049 291.931 337.497 290.155 337.497H284.419V354.585H290.155C291.931 354.585 293.419 354.033 294.427 353.025C296.155 351.297 296.083 348.105 296.083 345.801ZM294.787 345.801C294.787 347.697 294.883 350.721 293.515 352.113C292.531 353.121 291.211 353.433 289.843 353.433H285.715V338.649H289.843C291.211 338.649 292.531 338.961 293.515 339.969C294.883 341.361 294.787 343.905 294.787 345.801Z" fill="black"/>
</svg>
