<?xml version="1.0" encoding="iso-8859-1"?>
<!-- Uploaded to: SVG Repo, www.svgrepo.com, Generator: SVG Repo Mixer Tools -->
<svg version="1.1" id="Layer_1" xmlns="http://www.w3.org/2000/svg" xmlns:xlink="http://www.w3.org/1999/xlink" 
	 viewBox="0 0 512.001 512.001" xml:space="preserve">
<rect x="200" y="436.394" style="fill:#FBB516;" width="112.001" height="32"/>
<polyline style="fill:#AAAAAA;" points="479.159,436.474 479.159,492.366 424.302,492.366 424.302,436.474 "/>
<polyline style="fill:#777777;" points="32.022,436.474 32.022,492.366 87.914,492.366 87.914,436.474 "/>
<path style="fill:#FFFFFF;" d="M424,260.39l-30.11-95.35c-10.65-33.724-41.932-56.651-77.297-56.651H195.407
	c-35.364,0-66.647,22.927-77.297,56.651L88,260.39"/>
<rect x="248.347" y="35.916" style="fill:#00BA94;" width="15.526" height="72.453"/>
<path style="fill:#F60A53;" d="M276,188.389h-40c-6.627,0-12-5.373-12-12l0,0c0-6.627,5.373-12,12-12h40c6.627,0,12,5.373,12,12l0,0
	C288,183.016,282.627,188.389,276,188.389z"/>
<g>
	<path style="fill:#A645CB;" d="M24,244.39h24c8.837,0,16-7.163,16-16l0,0c0-8.837-7.163-16-16-16H24c-8.837,0-16,7.163-16,16l0,0
		C8,237.226,15.163,244.39,24,244.39z"/>
	<path style="fill:#A645CB;" d="M464,244.39h24c8.837,0,16-7.163,16-16l0,0c0-8.837-7.163-16-16-16h-24c-8.837,0-16,7.163-16,16l0,0
		C447.999,237.226,455.163,244.39,464,244.39z"/>
</g>
<path style="fill:#91E713;" d="M104,260.39l2.123-0.017c22.735,60.605,81.262,104.016,149.877,104.016
	c68.61,0,127.133-43.404,149.871-104.003l2.128,0.002"/>
<rect x="112.001" y="260.385" style="fill:#00BA94;" width="287.999" height="24.003"/>
<path style="fill:#91E713;" d="M376,132.39H136l0,0c9.996-14.994,26.824-24,44.844-24h150.312
	C349.176,108.389,366.004,117.396,376,132.39L376,132.39z"/>
<rect x="8" y="404.39" style="fill:#A645CB;" width="496" height="32"/>
<g>
	<rect x="71.997" y="404.39" style="fill:#F60A53;" width="32" height="47.995"/>
	<rect x="408.001" y="404.39" style="fill:#F60A53;" width="32" height="47.995"/>
</g>
<path style="fill:#91E713;" d="M16,404.389v-56c0-48.601,39.399-88,88-88l0,0l2.123-0.017
	c22.735,60.605,81.262,104.016,149.877,104.016c68.61,0,127.133-43.404,149.871-104.003l2.128,0.002l0,0c48.601,0,88,39.399,88,88
	v56"/>
<g>
	<path style="fill:#00BA94;" d="M312,364.389c63.138,0,117.657-36.804,143.684-89.893c-13.747-8.891-30.095-14.108-47.684-14.108
		l-2.129-0.002c-19.569,52.151-65.673,91.488-121.872,101.463C293.101,363.465,302.437,364.389,312,364.389z"/>
	<path style="fill:#00BA94;" d="M112.511,274.497c-2.257-4.605-4.476-9.287-6.29-14.124l-2.441,0.017
		c-48.601,0-88.318,39.399-88.318,88v55.999h56.927V348.39C72.388,317.379,88.273,290.17,112.511,274.497z"/>
</g>
<g>
	<circle style="fill:#FFFFFF;" cx="79.998" cy="340.394" r="32"/>
	<circle style="fill:#FFFFFF;" cx="432.004" cy="340.394" r="32"/>
</g>
<path d="M80,380.39c-22.057,0-40-17.943-40-40s17.944-40,40-40s40,17.943,40,40C120,362.445,102.057,380.39,80,380.39z M80,316.389
	c-13.234,0-24,10.766-24,24c0,13.234,10.765,24,24,24s24-10.766,24-24C104,327.156,93.234,316.389,80,316.389z"/>
<path d="M112,460.389H63.999v-64H112V460.389z M80,444.389h16v-32H80V444.389z"/>
<path d="M447.999,460.389h-48v-64h48V460.389z M416,444.389h15.999v-32H416V444.389z"/>
<rect x="120.002" y="396.11" width="272.215" height="15.526"/>
<polygon points="95.159,499.612 24.777,499.612 24.777,452 40.302,452 40.302,484.086 79.634,484.086 79.634,468.56 95.159,468.56 
	"/>
<polygon points="487.44,499.612 416.022,499.612 416.022,468.56 431.548,468.56 431.548,484.086 471.914,484.086 471.914,452 
	487.44,452 "/>
<path d="M384,243.958h-16.001c0-17.596-14.355-32-31.999-32c-17.645,0-32,14.405-32,32h-16.001c0-25.876,21.534-48,48.001-48
	S384,218.082,384,243.958z"/>
<rect x="72.388" y="331.938" style="fill:#FE702D;" width="15.526" height="15.526"/>
<path d="M432,380.39c-22.057,0-40.001-17.943-40.001-40s17.944-40,40.001-40s40,17.943,40,40C472,362.445,454.057,380.39,432,380.39
	z M432,316.389c-13.234,0-24,10.766-24,24c0,13.234,10.765,24,24,24s24-10.766,24-24C456,327.156,445.234,316.389,432,316.389z"/>
<rect x="424.303" y="331.938" style="fill:#FE702D;" width="15.526" height="15.526"/>
<path d="M320.001,476.389H191.999v-48h128.001V476.389z M208,460.389h96v-16h-96L208,460.389L208,460.389z"/>
<rect x="328.045" y="429.231" width="64.172" height="15.526"/>
<rect x="120.002" y="429.231" width="64.172" height="15.526"/>
<rect x="247.312" y="13.144" style="fill:#FE702D;" width="16.561" height="15.526"/>
<path style="fill:#F6306D;" d="M380,76.389h-56c-11.027,0-20-8.972-20-20s8.973-20,20-20h16c2.206,0,3.999-1.795,3.999-4
	c0-2.206-1.794-4-3.999-4h-68V12.389h68c11.027,0,20,8.972,20,20s-8.973,20-20,20h-16c-2.206,0-3.999,1.795-3.999,4s1.794,4,3.999,4
	h56c2.206,0,3.999-1.795,3.999-4c0-11.028,8.973-20,20-20H432v16h-28.001c-2.206,0-3.999,1.795-3.999,4
	C400,67.417,391.027,76.389,380,76.389z"/>
<polygon points="392.216,252.239 120,252.239 120,267.763 248.346,267.763 248.346,324.69 263.871,324.69 263.871,267.763 
	392.216,267.763 "/>
<rect x="247.312" y="331.938" width="16.561" height="15.526"/>
<g>
	<rect x="160.369" y="277.081" style="fill:#FFFFFF;" width="79.698" height="15.526"/>
	<rect x="272.153" y="277.081" style="fill:#FFFFFF;" width="79.698" height="15.526"/>
</g>
<path d="M504,348.39c0-35.727-19.62-66.956-48.647-83.485v-14.133c2.685,1.041,5.6,1.618,8.647,1.618h24
	c13.233,0,24-10.766,24-23.999c0-13.233-10.767-23.999-24-23.999h-24c-12.992,0-23.598,10.376-23.983,23.276h-0.005l-0.139,30.168
	c-2.982-1.053-6.037-1.944-9.145-2.701l-29.211-92.501c-11.756-37.228-45.885-62.241-84.926-62.241H195.407
	c-39.041,0-73.168,25.013-84.925,62.241l-29.206,92.483c-3.059,0.745-6.052,1.654-8.989,2.685c0,0-0.299-29.949-0.308-30.218
	l-0.002-0.184h-0.003c-0.523-12.774-11.074-23.008-23.975-23.008H24c-13.234,0.001-24,10.766-24,24
	c0,13.234,10.766,23.999,24,23.999h24c3.13,0,6.119-0.609,8.863-1.704v14.123C27.722,281.306,8,312.578,8,348.39v48H0v48h56v-16
	H16.001v-16.001h40v-16H24v-48c0-42.992,34.088-78.172,76.712-79.932c12.174,29.425,32.318,54.643,58.524,73.181
	c26.349,18.64,57.013,29.13,89.109,30.572v16.652h15.526v-16.662c32.015-1.478,62.598-11.962,88.886-30.557
	c26.21-18.54,46.356-43.758,58.532-73.188c42.593,1.731,76.71,36.923,76.71,79.934v48H456v16h40v16.001h-40v16h56v-48h-8L504,348.39
	L504,348.39z M464,220.39h24c4.411,0,8,3.588,8,8c0,4.411-3.588,8-8,8h-24c-4.412,0-8-3.59-8-8
	C456,223.978,459.588,220.39,464,220.39z M48,236.39H24c-4.411,0-8-3.59-8-8c0-4.411,3.588-8,8-8h24c4.411,0,8,3.588,8,8
	C56,232.801,52.411,236.39,48,236.39z M195.407,116.39h121.185c12.332,0,24.062,3.053,34.382,8.539H161.026
	C171.345,119.442,183.074,116.39,195.407,116.39z M408.009,252.39l-7.677-0.009l-1.95,5.196
	c-10.761,28.675-29.733,53.227-54.865,71.005c-25.72,18.193-55.982,27.808-87.518,27.808c-31.539,0-61.803-9.618-87.524-27.813
	c-25.134-17.78-44.105-42.336-54.863-71.014l-1.962-5.232l-7.651,0.059c-1.72,0-3.43,0.048-5.129,0.138l26.868-85.078
	c3.242-10.267,8.565-19.392,15.411-26.996h107.196v15.935h-12.346c-11.027,0-20,8.972-20,20s8.973,20,20,20h40
	c11.027,0,20-8.972,20-20s-8.973-20-20-20h-12.13v-15.935h106.979c6.846,7.602,12.169,16.729,15.411,26.996l26.871,85.091
	C411.434,252.451,409.729,252.39,408.009,252.39z M276,172.39c2.206,0,3.999,1.795,3.999,4s-1.794,4-3.999,4h-40
	c-2.206,0-3.999-1.795-3.999-4c0-2.206,1.794-4,3.999-4H276z"/>
<rect x="145.99" y="164.249" transform="matrix(-0.7071 -0.7071 0.7071 -0.7071 136.7371 413.4204)" width="16" height="28.284"/>
<rect x="161.99" y="192.933" transform="matrix(-0.7071 -0.7071 0.7071 -0.7071 135.7678 493.0152)" width="16" height="50.913"/>
</svg>