<!DOCTYPE svg PUBLIC "-//W3C//DTD SVG 1.1//EN" "http://www.w3.org/Graphics/SVG/1.1/DTD/svg11.dtd">
<!-- Uploaded to: SVG Repo, www.svgrepo.com, Transformed by: SVG Repo Mixer Tools -->
<svg width="256px" height="256px" viewBox="0 0 1024.00 1024.00" class="icon" version="1.1" xmlns="http://www.w3.org/2000/svg" fill="#000000" stroke="#000000" stroke-width="8.192">
<g id="SVGRepo_bgCarrier" stroke-width="0" transform="translate(0,0), scale(1)"/>
<g id="SVGRepo_tracerCarrier" stroke-linecap="round" stroke-linejoin="round" stroke="#CCCCCC" stroke-width="12.288">
<path d="M77.312 286.208h503.808v559.104H77.312z" fill="#474653"/>
<path d="M133.632 342.016h391.68v335.36H133.632z" fill="#FFFFFF"/>
<path d="M189.44 621.568h93.184L236.032 537.6zM375.808 453.632l-93.184 167.936h186.88z" fill="#FFD561"/>
<path d="M637.44 621.568v83.456l337.408-165.376-211.456-432.64-252.928 122.88h110.08l120.32-58.368 127.488 259.584-230.912 113.152z" fill="#474653"/>
</g>
<g id="SVGRepo_iconCarrier">
<path d="M77.312 286.208h503.808v559.104H77.312z" fill="#474653"/>
<path d="M133.632 342.016h391.68v335.36H133.632z" fill="#FFFFFF"/>
<path d="M189.44 621.568h93.184L236.032 537.6zM375.808 453.632l-93.184 167.936h186.88z" fill="#FFD561"/>
<path d="M637.44 621.568v83.456l337.408-165.376-211.456-432.64-252.928 122.88h110.08l120.32-58.368 127.488 259.584-230.912 113.152z" fill="#474653"/>
</g>
</svg>