<?xml version="1.0" standalone="no"?><svg xmlns="http://www.w3.org/2000/svg" viewBox="0 0 1440 320"><path fill="#f7a716" fill-opacity="0.7" d="M0,32L0,128L57.6,128L57.6,288L115.2,288L115.2,128L172.8,128L172.8,64L230.4,64L230.4,96L288,96L288,256L345.6,256L345.6,224L403.2,224L403.2,224L460.8,224L460.8,64L518.4,64L518.4,192L576,192L576,96L633.6,96L633.6,224L691.2,224L691.2,256L748.8,256L748.8,192L806.4,192L806.4,256L864,256L864,64L921.6,64L921.6,96L979.2,96L979.2,192L1036.8,192L1036.8,64L1094.4,64L1094.4,224L1152,224L1152,288L1209.6,288L1209.6,32L1267.2,32L1267.2,128L1324.8,128L1324.8,96L1382.4,96L1382.4,256L1440,256L1440,0L1382.4,0L1382.4,0L1324.8,0L1324.8,0L1267.2,0L1267.2,0L1209.6,0L1209.6,0L1152,0L1152,0L1094.4,0L1094.4,0L1036.8,0L1036.8,0L979.2,0L979.2,0L921.6,0L921.6,0L864,0L864,0L806.4,0L806.4,0L748.8,0L748.8,0L691.2,0L691.2,0L633.6,0L633.6,0L576,0L576,0L518.4,0L518.4,0L460.8,0L460.8,0L403.2,0L403.2,0L345.6,0L345.6,0L288,0L288,0L230.4,0L230.4,0L172.8,0L172.8,0L115.2,0L115.2,0L57.6,0L57.6,0L0,0L0,0Z"></path></svg>